<svg width="100%" height="100%" viewBox="0 0 2910 595" version="1.1" xmlns="http://www.w3.org/2000/svg" xmlns:xlink="http://www.w3.org/1999/xlink" xml:space="preserve" xmlns:serif="http://www.serif.com/" style="fill-rule:evenodd;clip-rule:evenodd;stroke-linejoin:round;stroke-miterlimit:2;">
    <g transform="matrix(9.09091,0,0,9.09091,0,0)">
        <g id="SvgjsG1051" transform="matrix(0.502513,0,0,0.502513,-19.598,-14.5729)">
            <g>
                <path d="M130.6,61.8C132.4,62.9 135,65.6 135,71.3C135,76 129.6,78.5 124.7,79.8C114.8,80.9 108,83.3 108,86.1C108,90 121.2,93.1 137.5,93.1C153.8,93.1 167,90 167,86.1C167,83.3 160.1,80.9 150.2,79.8C144.9,78.5 138.9,76 139,71.3C139.1,65.5 141.9,62.9 143.6,61.8C149.7,59.1 154,53 154,46C154,36.6 146.4,29 137,29C127.6,29 120,36.6 120,46C120,53.1 124.4,59.3 130.6,61.8ZM124.6,40.7C125.8,37.5 128.4,35 131.5,33.7C132.3,33.4 133.1,33.8 133.5,34.5C133.8,35.3 133.4,36.1 132.7,36.5C130.3,37.5 128.4,39.4 127.4,41.8C127.1,42.6 126.2,43 125.5,42.6C124.7,42.4 124.3,41.5 124.6,40.7Z" style="fill:rgb(238,238,238);"/>
                <path d="M132.3,74.2C132.5,73.8 132.7,73.5 132.8,73.1C100.4,73.7 75,80.1 75,88C75,96.3 103.2,103 138,103C172.8,103 201,96.3 201,88C201,80 174.6,73.4 141.3,73C141.5,73.4 141.6,73.7 141.9,74.1C166.1,74.6 185.1,79.4 185.1,85.3C185.1,91.5 164,96.5 138,96.5C112,96.5 90.9,91.5 90.9,85.3C90.9,79.6 109,74.8 132.3,74.2Z" style="fill:rgb(238,238,238);"/>
                <path d="M238,90.5C238,77.7 194.9,67.3 141.1,67C141,67.4 141,67.8 141,68.2C184.3,68.5 219,76.9 219,87.2C219,97.7 183,106.3 138.5,106.3C94,106.3 58,97.8 58,87.3C58,77.2 91.2,68.9 133.1,68.3C133.1,67.9 133,67.5 133,67C80.6,67.7 39,78 39,90.5C39,103.1 81.3,113.5 134.3,114C134.8,114.8 135,115.8 135,116.8C135,122.5 132.4,125.1 130.6,126.3C124.4,128.8 120,134.9 120,142.1C120,151.5 127.6,159.1 137,159.1C146.4,159.1 154,151.5 154,142.1C154,135.1 149.7,129 143.6,126.4C141.9,125.3 139.1,122.7 139,116.9C139,115.8 139.3,114.9 139.8,114C194.2,113.8 238,103.4 238,90.5ZM133.5,152.8C133.2,153.6 132.3,153.9 131.5,153.6C128.3,152.3 125.8,149.8 124.6,146.6C124.3,145.8 124.7,145 125.4,144.7C126.2,144.4 127,144.8 127.3,145.5C128.2,147.9 130.2,149.9 132.6,150.8C133.5,151.2 133.8,152.1 133.5,152.8Z" style="fill:rgb(238,238,238);"/>
            </g>
        </g>
        <g id="SvgjsG1052" transform="matrix(2.63296,0,0,2.63296,117.314,-6.42917)">
            <path d="M6.86,9.42C9.24,9.42 11.98,11.2 11.98,14.78C11.98,18.5 9.24,20.2 6.86,20.2C5.26,20.2 4.32,19.32 4.18,18.96L4.18,23.8L1.02,23.8L1.02,9.6L4.18,9.6L4.18,10.56C4.32,10.34 5.26,9.42 6.86,9.42ZM6.4,17.42C7.76,17.42 8.92,16.5 8.92,14.78C8.92,13.12 7.76,12.2 6.4,12.2C5.1,12.2 4.04,13.1 4.04,14.78C4.04,16.52 5.1,17.42 6.4,17.42ZM20.38,9.44C20.66,9.44 20.94,9.44 21.2,9.5L21.2,12.52C20.96,12.46 20.68,12.46 20.48,12.46C18.56,12.46 17.02,13.84 16.86,15.76L16.86,20L13.7,20L13.7,9.6L16.86,9.6L16.86,12.14C17.34,10.58 18.54,9.44 20.38,9.44ZM25.98,5.86L25.98,8.52L22.82,8.52L22.82,5.86L25.98,5.86ZM25.98,9.6L25.98,20L22.82,20L22.82,9.6L25.98,9.6ZM39.42,9.56L34.76,20L31.98,20L27.32,9.56L30.46,9.56L33.38,16.24L36.28,9.56L39.42,9.56ZM48.42,9.6L51.58,9.6L51.58,20L48.42,20L48.42,18.96C48.28,19.32 47.34,20.2 45.74,20.2C43.36,20.2 40.62,18.5 40.62,14.78C40.62,11.2 43.36,9.42 45.74,9.42C47.34,9.42 48.28,10.34 48.42,10.56L48.42,9.6ZM46.2,17.42C47.5,17.42 48.56,16.52 48.56,14.78C48.56,13.1 47.5,12.2 46.2,12.2C44.84,12.2 43.68,13.12 43.68,14.78C43.68,16.5 44.84,17.42 46.2,17.42ZM60.84,20L58.68,16.96L56.54,20L52.92,20L56.86,14.66L53.32,9.6L56.9,9.6L58.68,12.38L60.48,9.6L64.06,9.6L60.5,14.66L64.46,20L60.84,20ZM73.84,9.56L76.98,9.56L70.62,23.8L67.46,23.8L69.38,19.64L64.88,9.56L68.02,9.56L70.94,16.24L73.84,9.56Z" style="fill:rgb(238,238,238);fill-rule:nonzero;"/>
        </g>
    </g>
</svg>
